<svg xmlns="http://www.w3.org/2000/svg" viewBox="0 0 64 64">
  <path fill="#ff9f0a" d="M32 6C18.2 6 10 15.7 10 27.2 10 42.7 32 59 32 59s22-16.3 22-31.8C54 15.7 45.8 6 32 6Z"/>
  <path fill="#ff9f0a" d="M45.5 9.8a6 6 0 0 0 8.7 6.8 22 22 0 0 0-8.7-6.8Z"/>
  <circle cx="32" cy="27" r="15" fill="#fff"/>
  <path d="M21.5 25.7c3.5 8.6 17.5 8.6 21 0" fill="none" stroke="#171717" stroke-width="4.2" stroke-linecap="round"/>
  <path d="M20 27.2l3.5-3.2M44 27.2 40.5 24" fill="none" stroke="#171717" stroke-width="4.2" stroke-linecap="round"/>
  <path d="M30.5 33c.5 5.8 8.2 6.6 9.8 1.1" fill="#171717" stroke="#171717" stroke-width="3" stroke-linecap="round"/>
  <path d="M35.1 34.8c.1 1.8 2.7 2 3.2.3" fill="none" stroke="#ffb000" stroke-width="2.2" stroke-linecap="round"/>
</svg>
